<mxfile host="Electron" agent="Mozilla/5.0 (Windows NT 10.0; Win64; x64) AppleWebKit/537.36 (KHTML, like Gecko) draw.io/24.7.17 Chrome/128.0.6613.36 Electron/32.0.1 Safari/537.36" version="24.7.17">
  <diagram id="C5RBs43oDa-KdzZeNtuy" name="Page-1">
    <mxGraphModel dx="408" dy="731" grid="1" gridSize="10" guides="1" tooltips="1" connect="1" arrows="1" fold="1" page="1" pageScale="1" pageWidth="827" pageHeight="1169" math="0" shadow="0">
      <root>
        <mxCell id="WIyWlLk6GJQsqaUBKTNV-0" />
        <mxCell id="WIyWlLk6GJQsqaUBKTNV-1" parent="WIyWlLk6GJQsqaUBKTNV-0" />
        <mxCell id="fOXrECJ59G1fweOtOf10-0" value="UserProfile" style="swimlane;fontStyle=0;align=center;verticalAlign=top;childLayout=stackLayout;horizontal=1;startSize=26;horizontalStack=0;resizeParent=1;resizeLast=0;collapsible=1;marginBottom=0;rounded=0;shadow=0;strokeWidth=1;" parent="WIyWlLk6GJQsqaUBKTNV-1" vertex="1">
          <mxGeometry x="1180" y="220" width="160" height="330" as="geometry">
            <mxRectangle x="550" y="140" width="160" height="26" as="alternateBounds" />
          </mxGeometry>
        </mxCell>
        <mxCell id="fOXrECJ59G1fweOtOf10-1" value="- profilePhoto: String&#xa;- coverPhoto: String&#xa;- bio: String&#xa;- friends: ArrayList&lt;&gt;User" style="text;align=left;verticalAlign=top;spacingLeft=4;spacingRight=4;overflow=hidden;rotatable=0;points=[[0,0.5],[1,0.5]];portConstraint=eastwest;" parent="fOXrECJ59G1fweOtOf10-0" vertex="1">
          <mxGeometry y="26" width="160" height="84" as="geometry" />
        </mxCell>
        <mxCell id="fOXrECJ59G1fweOtOf10-6" value="" style="line;html=1;strokeWidth=1;align=left;verticalAlign=middle;spacingTop=-1;spacingLeft=3;spacingRight=3;rotatable=0;labelPosition=right;points=[];portConstraint=eastwest;" parent="fOXrECJ59G1fweOtOf10-0" vertex="1">
          <mxGeometry y="110" width="160" height="8" as="geometry" />
        </mxCell>
        <mxCell id="fOXrECJ59G1fweOtOf10-7" value="+ UpdatePass(oldPass, &#xa;     newPass, UserDB )&#xa;+ UpdateProP()&#xa;+ UpdateCoverP()&#xa;+ UpdateBio()&#xa;&#xa;+ FetchUserFriends(): &#xa;    ArrayList&lt;&gt;Users&#xa;+ FetchUserFriendStats(): &#xa;    String&#xa;+ FetchPosts(): Post&#xa;+ FetchTimeStamp(): LocalT&#xa;+ FetchPostImg(): String" style="text;align=left;verticalAlign=top;spacingLeft=4;spacingRight=4;overflow=hidden;rotatable=0;points=[[0,0.5],[1,0.5]];portConstraint=eastwest;" parent="fOXrECJ59G1fweOtOf10-0" vertex="1">
          <mxGeometry y="118" width="160" height="212" as="geometry" />
        </mxCell>
        <mxCell id="fOXrECJ59G1fweOtOf10-9" value="Initial UML -- a dodle" style="text;html=1;align=center;verticalAlign=middle;whiteSpace=wrap;rounded=0;" parent="WIyWlLk6GJQsqaUBKTNV-1" vertex="1">
          <mxGeometry x="1185" y="130" width="150" height="30" as="geometry" />
        </mxCell>
        <mxCell id="fOXrECJ59G1fweOtOf10-11" value="User" style="swimlane;fontStyle=0;align=center;verticalAlign=top;childLayout=stackLayout;horizontal=1;startSize=26;horizontalStack=0;resizeParent=1;resizeLast=0;collapsible=1;marginBottom=0;rounded=0;shadow=0;strokeWidth=1;" parent="WIyWlLk6GJQsqaUBKTNV-1" vertex="1">
          <mxGeometry x="1430" y="220" width="160" height="170" as="geometry">
            <mxRectangle x="550" y="140" width="160" height="26" as="alternateBounds" />
          </mxGeometry>
        </mxCell>
        <mxCell id="fOXrECJ59G1fweOtOf10-12" value="- Id&#xa;- mail&#xa;- userName&#xa;- password&#xa;- dateOfB&#xa;- status&#xa;- profile : UserProfile" style="text;align=left;verticalAlign=top;spacingLeft=4;spacingRight=4;overflow=hidden;rotatable=0;points=[[0,0.5],[1,0.5]];portConstraint=eastwest;" parent="fOXrECJ59G1fweOtOf10-11" vertex="1">
          <mxGeometry y="26" width="160" height="114" as="geometry" />
        </mxCell>
        <mxCell id="fOXrECJ59G1fweOtOf10-13" value="" style="line;html=1;strokeWidth=1;align=left;verticalAlign=middle;spacingTop=-1;spacingLeft=3;spacingRight=3;rotatable=0;labelPosition=right;points=[];portConstraint=eastwest;" parent="fOXrECJ59G1fweOtOf10-11" vertex="1">
          <mxGeometry y="140" width="160" height="8" as="geometry" />
        </mxCell>
        <mxCell id="fOXrECJ59G1fweOtOf10-14" value="Validate" style="text;align=left;verticalAlign=top;spacingLeft=4;spacingRight=4;overflow=hidden;rotatable=0;points=[[0,0.5],[1,0.5]];portConstraint=eastwest;" parent="fOXrECJ59G1fweOtOf10-11" vertex="1">
          <mxGeometry y="148" width="160" height="22" as="geometry" />
        </mxCell>
        <mxCell id="fOXrECJ59G1fweOtOf10-15" value="UserDatabase" style="swimlane;fontStyle=0;align=center;verticalAlign=top;childLayout=stackLayout;horizontal=1;startSize=26;horizontalStack=0;resizeParent=1;resizeLast=0;collapsible=1;marginBottom=0;rounded=0;shadow=0;strokeWidth=1;" parent="WIyWlLk6GJQsqaUBKTNV-1" vertex="1">
          <mxGeometry x="940" y="220" width="160" height="160" as="geometry">
            <mxRectangle x="550" y="140" width="160" height="26" as="alternateBounds" />
          </mxGeometry>
        </mxCell>
        <mxCell id="fOXrECJ59G1fweOtOf10-16" value="- Users: ArrayList&lt;&gt; User&#xa;" style="text;align=left;verticalAlign=top;spacingLeft=4;spacingRight=4;overflow=hidden;rotatable=0;points=[[0,0.5],[1,0.5]];portConstraint=eastwest;" parent="fOXrECJ59G1fweOtOf10-15" vertex="1">
          <mxGeometry y="26" width="160" height="94" as="geometry" />
        </mxCell>
        <mxCell id="fOXrECJ59G1fweOtOf10-17" value="" style="line;html=1;strokeWidth=1;align=left;verticalAlign=middle;spacingTop=-1;spacingLeft=3;spacingRight=3;rotatable=0;labelPosition=right;points=[];portConstraint=eastwest;" parent="fOXrECJ59G1fweOtOf10-15" vertex="1">
          <mxGeometry y="120" width="160" height="8" as="geometry" />
        </mxCell>
        <mxCell id="fOXrECJ59G1fweOtOf10-18" value="Validate" style="text;align=left;verticalAlign=top;spacingLeft=4;spacingRight=4;overflow=hidden;rotatable=0;points=[[0,0.5],[1,0.5]];portConstraint=eastwest;" parent="fOXrECJ59G1fweOtOf10-15" vertex="1">
          <mxGeometry y="128" width="160" height="22" as="geometry" />
        </mxCell>
        <mxCell id="fOXrECJ59G1fweOtOf10-20" value="uses" style="html=1;verticalAlign=bottom;endArrow=open;dashed=1;endSize=8;curved=0;rounded=0;" parent="WIyWlLk6GJQsqaUBKTNV-1" edge="1">
          <mxGeometry relative="1" as="geometry">
            <mxPoint x="1180" y="320" as="sourcePoint" />
            <mxPoint x="1100" y="320" as="targetPoint" />
          </mxGeometry>
        </mxCell>
        <mxCell id="fOXrECJ59G1fweOtOf10-27" value="Initial FrontEnd Mind Idea" style="text;html=1;align=center;verticalAlign=middle;whiteSpace=wrap;rounded=0;" parent="WIyWlLk6GJQsqaUBKTNV-1" vertex="1">
          <mxGeometry x="1980" y="130" width="150" height="30" as="geometry" />
        </mxCell>
        <mxCell id="fOXrECJ59G1fweOtOf10-28" value="" style="rounded=0;whiteSpace=wrap;html=1;" parent="WIyWlLk6GJQsqaUBKTNV-1" vertex="1">
          <mxGeometry x="1873" y="170" width="390" height="350" as="geometry" />
        </mxCell>
        <mxCell id="fOXrECJ59G1fweOtOf10-33" value="" style="rounded=1;whiteSpace=wrap;html=1;" parent="WIyWlLk6GJQsqaUBKTNV-1" vertex="1">
          <mxGeometry x="1888" y="180" width="360" height="60" as="geometry" />
        </mxCell>
        <mxCell id="fOXrECJ59G1fweOtOf10-34" value="" style="ellipse;whiteSpace=wrap;html=1;aspect=fixed;" parent="WIyWlLk6GJQsqaUBKTNV-1" vertex="1">
          <mxGeometry x="1910" y="200" width="80" height="80" as="geometry" />
        </mxCell>
        <mxCell id="fOXrECJ59G1fweOtOf10-37" value="" style="rounded=1;whiteSpace=wrap;html=1;" parent="WIyWlLk6GJQsqaUBKTNV-1" vertex="1">
          <mxGeometry x="1890" y="320" width="350" height="20" as="geometry" />
        </mxCell>
        <mxCell id="fOXrECJ59G1fweOtOf10-39" value="&lt;b&gt;Bio: &lt;/b&gt;fdgf ksdgjs fdsglkjsgs sk;fg sfdgljk slkjsdfg jsfgljksf&amp;nbsp;" style="text;html=1;align=left;verticalAlign=middle;whiteSpace=wrap;rounded=0;" parent="WIyWlLk6GJQsqaUBKTNV-1" vertex="1">
          <mxGeometry x="2000" y="270" width="250" height="30" as="geometry" />
        </mxCell>
        <mxCell id="fOXrECJ59G1fweOtOf10-40" value="" style="rhombus;whiteSpace=wrap;html=1;" parent="WIyWlLk6GJQsqaUBKTNV-1" vertex="1">
          <mxGeometry x="2228" y="231" width="15" height="15" as="geometry" />
        </mxCell>
        <mxCell id="fOXrECJ59G1fweOtOf10-41" value="" style="rhombus;whiteSpace=wrap;html=1;" parent="WIyWlLk6GJQsqaUBKTNV-1" vertex="1">
          <mxGeometry x="1965" y="265" width="15" height="15" as="geometry" />
        </mxCell>
        <mxCell id="fOXrECJ59G1fweOtOf10-42" value="" style="rounded=1;whiteSpace=wrap;html=1;" parent="WIyWlLk6GJQsqaUBKTNV-1" vertex="1">
          <mxGeometry x="1890" y="490" width="70" height="20" as="geometry" />
        </mxCell>
        <mxCell id="fOXrECJ59G1fweOtOf10-43" value="" style="rhombus;whiteSpace=wrap;html=1;" parent="WIyWlLk6GJQsqaUBKTNV-1" vertex="1">
          <mxGeometry x="2213" y="270" width="15" height="15" as="geometry" />
        </mxCell>
        <mxCell id="fOXrECJ59G1fweOtOf10-44" value="Friend List" style="text;html=1;align=center;verticalAlign=middle;whiteSpace=wrap;rounded=0;" parent="WIyWlLk6GJQsqaUBKTNV-1" vertex="1">
          <mxGeometry x="2011" y="315" width="60" height="30" as="geometry" />
        </mxCell>
        <mxCell id="fOXrECJ59G1fweOtOf10-46" value="Back" style="text;html=1;align=center;verticalAlign=middle;whiteSpace=wrap;rounded=0;fontSize=10;" parent="WIyWlLk6GJQsqaUBKTNV-1" vertex="1">
          <mxGeometry x="1895" y="494" width="60" height="14" as="geometry" />
        </mxCell>
        <mxCell id="fOXrECJ59G1fweOtOf10-47" value="&lt;b style=&quot;font-size: 13px;&quot;&gt;Name&lt;/b&gt; | Status | FriendNum" style="text;html=1;align=left;verticalAlign=middle;whiteSpace=wrap;rounded=0;fontSize=13;" parent="WIyWlLk6GJQsqaUBKTNV-1" vertex="1">
          <mxGeometry x="2001" y="245" width="160" height="30" as="geometry" />
        </mxCell>
        <mxCell id="fOXrECJ59G1fweOtOf10-48" value="Post" style="swimlane;fontStyle=0;align=center;verticalAlign=top;childLayout=stackLayout;horizontal=1;startSize=26;horizontalStack=0;resizeParent=1;resizeLast=0;collapsible=1;marginBottom=0;rounded=0;shadow=0;strokeWidth=1;" parent="WIyWlLk6GJQsqaUBKTNV-1" vertex="1">
          <mxGeometry x="940" y="420" width="160" height="100" as="geometry">
            <mxRectangle x="550" y="140" width="160" height="26" as="alternateBounds" />
          </mxGeometry>
        </mxCell>
        <mxCell id="fOXrECJ59G1fweOtOf10-49" value="&#xa;" style="text;align=left;verticalAlign=top;spacingLeft=4;spacingRight=4;overflow=hidden;rotatable=0;points=[[0,0.5],[1,0.5]];portConstraint=eastwest;" parent="fOXrECJ59G1fweOtOf10-48" vertex="1">
          <mxGeometry y="26" width="160" height="34" as="geometry" />
        </mxCell>
        <mxCell id="fOXrECJ59G1fweOtOf10-50" value="" style="line;html=1;strokeWidth=1;align=left;verticalAlign=middle;spacingTop=-1;spacingLeft=3;spacingRight=3;rotatable=0;labelPosition=right;points=[];portConstraint=eastwest;" parent="fOXrECJ59G1fweOtOf10-48" vertex="1">
          <mxGeometry y="60" width="160" height="8" as="geometry" />
        </mxCell>
        <mxCell id="fOXrECJ59G1fweOtOf10-51" value="Validate" style="text;align=left;verticalAlign=top;spacingLeft=4;spacingRight=4;overflow=hidden;rotatable=0;points=[[0,0.5],[1,0.5]];portConstraint=eastwest;" parent="fOXrECJ59G1fweOtOf10-48" vertex="1">
          <mxGeometry y="68" width="160" height="22" as="geometry" />
        </mxCell>
        <mxCell id="fOXrECJ59G1fweOtOf10-52" value="uses" style="html=1;verticalAlign=bottom;endArrow=open;dashed=1;endSize=8;curved=0;rounded=0;" parent="WIyWlLk6GJQsqaUBKTNV-1" edge="1">
          <mxGeometry relative="1" as="geometry">
            <mxPoint x="1180" y="470" as="sourcePoint" />
            <mxPoint x="1100" y="470" as="targetPoint" />
          </mxGeometry>
        </mxCell>
        <mxCell id="PvzazogzUtuUFqr8OJ1A-0" value="1" style="endArrow=open;html=1;endSize=12;startArrow=diamondThin;startSize=14;startFill=1;edgeStyle=orthogonalEdgeStyle;align=left;verticalAlign=bottom;rounded=0;exitX=0;exitY=0.5;exitDx=0;exitDy=0;entryX=1.016;entryY=0.689;entryDx=0;entryDy=0;entryPerimeter=0;" parent="WIyWlLk6GJQsqaUBKTNV-1" source="fOXrECJ59G1fweOtOf10-12" target="fOXrECJ59G1fweOtOf10-1" edge="1">
          <mxGeometry x="-0.608" y="15" relative="1" as="geometry">
            <mxPoint x="1260" y="350" as="sourcePoint" />
            <mxPoint x="1420" y="350" as="targetPoint" />
            <mxPoint as="offset" />
          </mxGeometry>
        </mxCell>
        <mxCell id="6MSueB7P3AmxYLNu4H1p-0" value="Stories" style="text;html=1;align=center;verticalAlign=middle;whiteSpace=wrap;rounded=0;" parent="WIyWlLk6GJQsqaUBKTNV-1" vertex="1">
          <mxGeometry x="1944" y="315" width="60" height="30" as="geometry" />
        </mxCell>
        <mxCell id="6MSueB7P3AmxYLNu4H1p-1" value="Friend sugestion" style="text;html=1;align=center;verticalAlign=middle;whiteSpace=wrap;rounded=0;" parent="WIyWlLk6GJQsqaUBKTNV-1" vertex="1">
          <mxGeometry x="2084" y="315" width="96" height="30" as="geometry" />
        </mxCell>
        <mxCell id="6MSueB7P3AmxYLNu4H1p-2" value="Add" style="text;html=1;align=center;verticalAlign=middle;whiteSpace=wrap;rounded=0;" parent="WIyWlLk6GJQsqaUBKTNV-1" vertex="1">
          <mxGeometry x="2186" y="315" width="53" height="30" as="geometry" />
        </mxCell>
        <mxCell id="6MSueB7P3AmxYLNu4H1p-4" value="" style="rounded=1;whiteSpace=wrap;html=1;fillColor=#313b45;fontColor=#ffffff;strokeColor=none;" parent="WIyWlLk6GJQsqaUBKTNV-1" vertex="1">
          <mxGeometry x="1890" y="320" width="50" height="20" as="geometry" />
        </mxCell>
        <mxCell id="6MSueB7P3AmxYLNu4H1p-5" value="Posts" style="text;html=1;align=center;verticalAlign=middle;whiteSpace=wrap;rounded=0;" parent="WIyWlLk6GJQsqaUBKTNV-1" vertex="1">
          <mxGeometry x="1885" y="315" width="60" height="30" as="geometry" />
        </mxCell>
        <mxCell id="6MSueB7P3AmxYLNu4H1p-7" value="" style="rounded=1;whiteSpace=wrap;html=1;" parent="WIyWlLk6GJQsqaUBKTNV-1" vertex="1">
          <mxGeometry x="1890" y="348" width="350" height="130" as="geometry" />
        </mxCell>
        <mxCell id="6MSueB7P3AmxYLNu4H1p-8" value="" style="rounded=0;whiteSpace=wrap;html=1;" parent="WIyWlLk6GJQsqaUBKTNV-1" vertex="1">
          <mxGeometry x="2570" y="170" width="390" height="350" as="geometry" />
        </mxCell>
        <mxCell id="6MSueB7P3AmxYLNu4H1p-9" value="" style="rounded=1;whiteSpace=wrap;html=1;" parent="WIyWlLk6GJQsqaUBKTNV-1" vertex="1">
          <mxGeometry x="2585" y="180" width="360" height="60" as="geometry" />
        </mxCell>
        <mxCell id="6MSueB7P3AmxYLNu4H1p-10" value="" style="ellipse;whiteSpace=wrap;html=1;aspect=fixed;" parent="WIyWlLk6GJQsqaUBKTNV-1" vertex="1">
          <mxGeometry x="2610" y="246.25" width="62.5" height="62.5" as="geometry" />
        </mxCell>
        <mxCell id="6MSueB7P3AmxYLNu4H1p-11" value="" style="rounded=1;whiteSpace=wrap;html=1;" parent="WIyWlLk6GJQsqaUBKTNV-1" vertex="1">
          <mxGeometry x="2587" y="320" width="350" height="20" as="geometry" />
        </mxCell>
        <mxCell id="6MSueB7P3AmxYLNu4H1p-12" value="&lt;b&gt;Bio: &lt;/b&gt;fdgf ksdgjs fdsglkjsgs sk;fg sfdgljk slkjsdfg jsfgljksf&amp;nbsp;" style="text;html=1;align=left;verticalAlign=middle;whiteSpace=wrap;rounded=0;" parent="WIyWlLk6GJQsqaUBKTNV-1" vertex="1">
          <mxGeometry x="2697" y="275" width="250" height="30" as="geometry" />
        </mxCell>
        <mxCell id="6MSueB7P3AmxYLNu4H1p-13" value="" style="rhombus;whiteSpace=wrap;html=1;" parent="WIyWlLk6GJQsqaUBKTNV-1" vertex="1">
          <mxGeometry x="2925" y="231" width="15" height="15" as="geometry" />
        </mxCell>
        <mxCell id="6MSueB7P3AmxYLNu4H1p-14" value="" style="rhombus;whiteSpace=wrap;html=1;" parent="WIyWlLk6GJQsqaUBKTNV-1" vertex="1">
          <mxGeometry x="2657.5" y="292.5" width="15" height="15" as="geometry" />
        </mxCell>
        <mxCell id="6MSueB7P3AmxYLNu4H1p-15" value="" style="rounded=1;whiteSpace=wrap;html=1;" parent="WIyWlLk6GJQsqaUBKTNV-1" vertex="1">
          <mxGeometry x="2587" y="490" width="70" height="20" as="geometry" />
        </mxCell>
        <mxCell id="6MSueB7P3AmxYLNu4H1p-16" value="" style="rhombus;whiteSpace=wrap;html=1;" parent="WIyWlLk6GJQsqaUBKTNV-1" vertex="1">
          <mxGeometry x="2910" y="275" width="15" height="15" as="geometry" />
        </mxCell>
        <mxCell id="6MSueB7P3AmxYLNu4H1p-17" value="Friend List" style="text;html=1;align=center;verticalAlign=middle;whiteSpace=wrap;rounded=0;" parent="WIyWlLk6GJQsqaUBKTNV-1" vertex="1">
          <mxGeometry x="2697" y="320" width="60" height="21" as="geometry" />
        </mxCell>
        <mxCell id="6MSueB7P3AmxYLNu4H1p-18" value="Log out" style="text;html=1;align=center;verticalAlign=middle;whiteSpace=wrap;rounded=0;fontSize=10;" parent="WIyWlLk6GJQsqaUBKTNV-1" vertex="1">
          <mxGeometry x="2592" y="497" width="60" height="8" as="geometry" />
        </mxCell>
        <mxCell id="6MSueB7P3AmxYLNu4H1p-19" value="&lt;b style=&quot;font-size: 13px;&quot;&gt;Name&lt;/b&gt; | Status | FriendNum" style="text;html=1;align=left;verticalAlign=middle;whiteSpace=wrap;rounded=0;fontSize=13;" parent="WIyWlLk6GJQsqaUBKTNV-1" vertex="1">
          <mxGeometry x="2698" y="245" width="160" height="30" as="geometry" />
        </mxCell>
        <mxCell id="6MSueB7P3AmxYLNu4H1p-20" value="Stories" style="text;html=1;align=center;verticalAlign=middle;whiteSpace=wrap;rounded=0;" parent="WIyWlLk6GJQsqaUBKTNV-1" vertex="1">
          <mxGeometry x="2643" y="315" width="49" height="30" as="geometry" />
        </mxCell>
        <mxCell id="6MSueB7P3AmxYLNu4H1p-21" value="Friend suggestions" style="text;html=1;align=center;verticalAlign=middle;whiteSpace=wrap;rounded=0;" parent="WIyWlLk6GJQsqaUBKTNV-1" vertex="1">
          <mxGeometry x="2771" y="323" width="109" height="15" as="geometry" />
        </mxCell>
        <mxCell id="6MSueB7P3AmxYLNu4H1p-22" value="Add" style="text;html=1;align=center;verticalAlign=middle;whiteSpace=wrap;rounded=0;" parent="WIyWlLk6GJQsqaUBKTNV-1" vertex="1">
          <mxGeometry x="2890" y="323" width="36" height="15" as="geometry" />
        </mxCell>
        <mxCell id="6MSueB7P3AmxYLNu4H1p-23" value="" style="rounded=1;whiteSpace=wrap;html=1;fillColor=#313b45;fontColor=#ffffff;strokeColor=none;" parent="WIyWlLk6GJQsqaUBKTNV-1" vertex="1">
          <mxGeometry x="2587" y="320" width="50" height="20" as="geometry" />
        </mxCell>
        <mxCell id="6MSueB7P3AmxYLNu4H1p-24" value="Posts" style="text;html=1;align=center;verticalAlign=middle;whiteSpace=wrap;rounded=0;" parent="WIyWlLk6GJQsqaUBKTNV-1" vertex="1">
          <mxGeometry x="2582" y="315" width="60" height="30" as="geometry" />
        </mxCell>
        <mxCell id="6MSueB7P3AmxYLNu4H1p-25" value="" style="rounded=1;whiteSpace=wrap;html=1;" parent="WIyWlLk6GJQsqaUBKTNV-1" vertex="1">
          <mxGeometry x="2587" y="348" width="350" height="130" as="geometry" />
        </mxCell>
        <mxCell id="6MSueB7P3AmxYLNu4H1p-26" value="Initial FrontEnd Mind Idea v2" style="text;html=1;align=center;verticalAlign=middle;whiteSpace=wrap;rounded=0;" parent="WIyWlLk6GJQsqaUBKTNV-1" vertex="1">
          <mxGeometry x="2677" y="122" width="173" height="30" as="geometry" />
        </mxCell>
        <mxCell id="UPNdq9WomsWeq9z4ZOeU-0" value="Back" style="text;html=1;align=center;verticalAlign=middle;whiteSpace=wrap;rounded=0;fontSize=10;" vertex="1" parent="WIyWlLk6GJQsqaUBKTNV-1">
          <mxGeometry x="3635" y="897" width="60" height="8" as="geometry" />
        </mxCell>
        <mxCell id="UPNdq9WomsWeq9z4ZOeU-1" value="" style="rounded=1;whiteSpace=wrap;html=1;" vertex="1" parent="WIyWlLk6GJQsqaUBKTNV-1">
          <mxGeometry x="3630" y="890" width="70" height="20" as="geometry" />
        </mxCell>
        <mxCell id="UPNdq9WomsWeq9z4ZOeU-2" value="" style="rounded=1;whiteSpace=wrap;html=1;" vertex="1" parent="WIyWlLk6GJQsqaUBKTNV-1">
          <mxGeometry x="2867" y="490" width="70" height="20" as="geometry" />
        </mxCell>
        <mxCell id="UPNdq9WomsWeq9z4ZOeU-3" value="Refresh" style="text;html=1;align=center;verticalAlign=middle;whiteSpace=wrap;rounded=0;fontSize=10;" vertex="1" parent="WIyWlLk6GJQsqaUBKTNV-1">
          <mxGeometry x="2873" y="497" width="60" height="8" as="geometry" />
        </mxCell>
      </root>
    </mxGraphModel>
  </diagram>
</mxfile>
